<svg xmlns="http://www.w3.org/2000/svg" width="1000" height="1000" viewBox="0 0 264.6 264.6">
  <path d="M29.6 168.1c-8.7 0-15.7 8.6-15.7 19.2s6.4 17.8 15.7 19.2L146 232l104.6-58.8" fill="none" stroke="#333" stroke-width="7.44594" stroke-linecap="round" stroke-linejoin="round"/>
  <path d="M29.6 129.8c-8.7 0-15.7 8.6-15.7 19.1 0 10.6 6.4 17.9 15.7 19.2L146 193.7l104.6-58.9" fill="none" stroke="#333" stroke-width="7.44594" stroke-linecap="round" stroke-linejoin="round"/>
  <path d="M29.6 91.4c-8.7 0-15.7 8.6-15.7 19.2s6.4 17.8 15.7 19.2l56.8 12.4m34 7.5l25.6 5.6 104.6-58.8" fill="none" stroke="#333" stroke-width="7.44594" stroke-linecap="round" stroke-linejoin="round"/>
  <path d="M134.2 32.6L26.8 91.4 146 117l104.6-58.9z" fill="#333" stroke="#333" stroke-width="7.420597000000001" stroke-linecap="round" stroke-linejoin="round"/>
  <path d="M142.2 55.1l-27 15.3 43.3 9.5 27-15.3z" fill="#f29d16" stroke="#333" stroke-width="2.7301780000000004" stroke-linecap="round" stroke-linejoin="round"/>
  <path d="M95.3 122.5v39l8.7-5.5 9.6 10.6v-41z" fill="#f49f16" fill-rule="evenodd"/>
</svg>